<svg xmlns="http://www.w3.org/2000/svg" width="1200" height="1056" viewBox="0 0 1200 1056">
<defs><pattern id="unsafeHatch" width="8" height="8" patternUnits="userSpaceOnUse" patternTransform="rotate(45)"><rect width="8" height="8" fill="#fee2e2"/><line x1="0" y1="0" x2="0" y2="8" stroke="#b91c1c" stroke-width="4"/></pattern></defs>
<rect width="100%" height="100%" fill="white"/>
<style>text{font-family:system-ui,sans-serif;fill:#111827}.small{font-size:10px}.axis{stroke:#9ca3af;stroke-width:1}.grid{stroke:#d1d5db;stroke-width:1;opacity:.6}</style>
<text x="20" y="30" font-size="21" font-weight="700">DetLog WAL benchmark — durable and nondurable policies kept distinct</text>
<rect x="20" y="42" width="1160" height="34" rx="4" fill="#fee2e2" stroke="#b91c1c" stroke-width="2"/>
<text x="32" y="64" font-size="14" font-weight="800" fill="#991b1b">UNSAFE / NONDURABLE APPEND ACKNOWLEDGEMENTS: unsafe-no-flush append throughput does not measure crash-safe commits</text>
<text x="24" y="92" font-size="11">P1: source=raw-includes-nondurable.jsonl | os=windows | compiler=gcc 11.3.0 | C++=202002 | hw_threads=20 | commit=uncommitted-worktree-no-head | flags=g++ 11.3 -O2 -std=c++20 strict warnings<title>D:\Users\meiwang\Documents\DetLog\artifacts\benchmarks\wal-smoke\raw-includes-nondurable.jsonl</title></text>
<text x="105" y="123" font-size="17" font-weight="700">Append throughput (trial means with min–max whiskers; final unsafe flush excluded)</text>
<text transform="translate(22,328.5) rotate(-90)" text-anchor="middle" font-size="12">entries / second</text>
<line class="axis" x1="105" y1="141" x2="105" y2="516"/>
<line class="axis" x1="105" y1="516" x2="1155" y2="516"/>
<line class="grid" x1="105" y1="516.0" x2="1155" y2="516.0"/>
<text class="small" text-anchor="end" x="97" y="519.0">0</text>
<line class="grid" x1="105" y1="441.0" x2="1155" y2="441.0"/>
<text class="small" text-anchor="end" x="97" y="444.0">22.5k</text>
<line class="grid" x1="105" y1="366.0" x2="1155" y2="366.0"/>
<text class="small" text-anchor="end" x="97" y="369.0">45.1k</text>
<line class="grid" x1="105" y1="291.0" x2="1155" y2="291.0"/>
<text class="small" text-anchor="end" x="97" y="294.0">67.6k</text>
<line class="grid" x1="105" y1="216.0" x2="1155" y2="216.0"/>
<text class="small" text-anchor="end" x="97" y="219.0">90.1k</text>
<line class="grid" x1="105" y1="141.0" x2="1155" y2="141.0"/>
<text class="small" text-anchor="end" x="97" y="144.0">113k</text>
<rect x="117" y="515.15" width="34" height="0.85" fill="#2563eb" stroke="#065f46" stroke-width="2"><title>P1 | entries=10 | payload=64 B | flush every append | trials=1 | mean=256.714 entries/s | min=256.714 | max=256.714</title></rect>
<line x1="134" y1="515.15" x2="134" y2="515.15" stroke="#111827" stroke-width="1.5"/>
<line x1="128" y1="515.15" x2="140" y2="515.15" stroke="#111827" stroke-width="1.5"/>
<line x1="128" y1="515.15" x2="140" y2="515.15" stroke="#111827" stroke-width="1.5"/>
<text class="small" transform="translate(121,528) rotate(58)">P1 e10 p64 F</text>
<rect x="172" y="513.45" width="34" height="2.55" fill="#059669" stroke="#065f46" stroke-width="2"><title>P1 | entries=10 | payload=64 B | group(4) | trials=1 | mean=765.111 entries/s | min=765.111 | max=765.111</title></rect>
<line x1="189" y1="513.45" x2="189" y2="513.45" stroke="#111827" stroke-width="1.5"/>
<line x1="183" y1="513.45" x2="195" y2="513.45" stroke="#111827" stroke-width="1.5"/>
<line x1="183" y1="513.45" x2="195" y2="513.45" stroke="#111827" stroke-width="1.5"/>
<text class="small" transform="translate(176,528) rotate(58)">P1 e10 p64 G4</text>
<rect x="227" y="407.37" width="34" height="108.63" fill="url(#unsafeHatch)" stroke="#991b1b" stroke-width="2"><title>P1 | entries=10 | payload=64 B | UNSAFE: no flush during append | trials=1 | mean=32626.4 entries/s | min=32626.4 | max=32626.4</title></rect>
<line x1="244" y1="407.37" x2="244" y2="407.37" stroke="#111827" stroke-width="1.5"/>
<line x1="238" y1="407.37" x2="250" y2="407.37" stroke="#111827" stroke-width="1.5"/>
<line x1="238" y1="407.37" x2="250" y2="407.37" stroke="#111827" stroke-width="1.5"/>
<text class="small" transform="translate(231,528) rotate(58)">P1 e10 p64 UNSAFE</text>
<rect x="282" y="515.04" width="34" height="0.96" fill="#2563eb" stroke="#065f46" stroke-width="2"><title>P1 | entries=10 | payload=1024 B | flush every append | trials=1 | mean=288.362 entries/s | min=288.362 | max=288.362</title></rect>
<line x1="299" y1="515.04" x2="299" y2="515.04" stroke="#111827" stroke-width="1.5"/>
<line x1="293" y1="515.04" x2="305" y2="515.04" stroke="#111827" stroke-width="1.5"/>
<line x1="293" y1="515.04" x2="305" y2="515.04" stroke="#111827" stroke-width="1.5"/>
<text class="small" transform="translate(286,528) rotate(58)">P1 e10 p1024 F</text>
<rect x="337" y="512.87" width="34" height="3.13" fill="#059669" stroke="#065f46" stroke-width="2"><title>P1 | entries=10 | payload=1024 B | group(4) | trials=1 | mean=938.562 entries/s | min=938.562 | max=938.562</title></rect>
<line x1="354" y1="512.87" x2="354" y2="512.87" stroke="#111827" stroke-width="1.5"/>
<line x1="348" y1="512.87" x2="360" y2="512.87" stroke="#111827" stroke-width="1.5"/>
<line x1="348" y1="512.87" x2="360" y2="512.87" stroke="#111827" stroke-width="1.5"/>
<text class="small" transform="translate(341,528) rotate(58)">P1 e10 p1024 G4</text>
<rect x="392" y="422.02" width="34" height="93.98" fill="url(#unsafeHatch)" stroke="#991b1b" stroke-width="2"><title>P1 | entries=10 | payload=1024 B | UNSAFE: no flush during append | trials=1 | mean=28224.7 entries/s | min=28224.7 | max=28224.7</title></rect>
<line x1="409" y1="422.02" x2="409" y2="422.02" stroke="#111827" stroke-width="1.5"/>
<line x1="403" y1="422.02" x2="415" y2="422.02" stroke="#111827" stroke-width="1.5"/>
<line x1="403" y1="422.02" x2="415" y2="422.02" stroke="#111827" stroke-width="1.5"/>
<text class="small" transform="translate(396,528) rotate(58)">P1 e10 p1024 UNSAFE</text>
<rect x="447" y="515.02" width="34" height="0.98" fill="#2563eb" stroke="#065f46" stroke-width="2"><title>P1 | entries=100 | payload=64 B | flush every append | trials=1 | mean=294.108 entries/s | min=294.108 | max=294.108</title></rect>
<line x1="464" y1="515.02" x2="464" y2="515.02" stroke="#111827" stroke-width="1.5"/>
<line x1="458" y1="515.02" x2="470" y2="515.02" stroke="#111827" stroke-width="1.5"/>
<line x1="458" y1="515.02" x2="470" y2="515.02" stroke="#111827" stroke-width="1.5"/>
<text class="small" transform="translate(451,528) rotate(58)">P1 e100 p64 F</text>
<rect x="502" y="512.30" width="34" height="3.70" fill="#059669" stroke="#065f46" stroke-width="2"><title>P1 | entries=100 | payload=64 B | group(4) | trials=1 | mean=1112.27 entries/s | min=1112.27 | max=1112.27</title></rect>
<line x1="519" y1="512.30" x2="519" y2="512.30" stroke="#111827" stroke-width="1.5"/>
<line x1="513" y1="512.30" x2="525" y2="512.30" stroke="#111827" stroke-width="1.5"/>
<line x1="513" y1="512.30" x2="525" y2="512.30" stroke="#111827" stroke-width="1.5"/>
<text class="small" transform="translate(506,528) rotate(58)">P1 e100 p64 G4</text>
<rect x="557" y="141.00" width="34" height="375.00" fill="url(#unsafeHatch)" stroke="#991b1b" stroke-width="2"><title>P1 | entries=100 | payload=64 B | UNSAFE: no flush during append | trials=1 | mean=112625 entries/s | min=112625 | max=112625</title></rect>
<line x1="574" y1="141.00" x2="574" y2="141.00" stroke="#111827" stroke-width="1.5"/>
<line x1="568" y1="141.00" x2="580" y2="141.00" stroke="#111827" stroke-width="1.5"/>
<line x1="568" y1="141.00" x2="580" y2="141.00" stroke="#111827" stroke-width="1.5"/>
<text class="small" transform="translate(561,528) rotate(58)">P1 e100 p64 UNSAFE</text>
<rect x="612" y="515.00" width="34" height="1.00" fill="#2563eb" stroke="#065f46" stroke-width="2"><title>P1 | entries=100 | payload=1024 B | flush every append | trials=1 | mean=301.357 entries/s | min=301.357 | max=301.357</title></rect>
<line x1="629" y1="515.00" x2="629" y2="515.00" stroke="#111827" stroke-width="1.5"/>
<line x1="623" y1="515.00" x2="635" y2="515.00" stroke="#111827" stroke-width="1.5"/>
<line x1="623" y1="515.00" x2="635" y2="515.00" stroke="#111827" stroke-width="1.5"/>
<text class="small" transform="translate(616,528) rotate(58)">P1 e100 p1024 F</text>
<rect x="667" y="512.31" width="34" height="3.69" fill="#059669" stroke="#065f46" stroke-width="2"><title>P1 | entries=100 | payload=1024 B | group(4) | trials=1 | mean=1107.39 entries/s | min=1107.39 | max=1107.39</title></rect>
<line x1="684" y1="512.31" x2="684" y2="512.31" stroke="#111827" stroke-width="1.5"/>
<line x1="678" y1="512.31" x2="690" y2="512.31" stroke="#111827" stroke-width="1.5"/>
<line x1="678" y1="512.31" x2="690" y2="512.31" stroke="#111827" stroke-width="1.5"/>
<text class="small" transform="translate(671,528) rotate(58)">P1 e100 p1024 G4</text>
<rect x="722" y="329.07" width="34" height="186.93" fill="url(#unsafeHatch)" stroke="#991b1b" stroke-width="2"><title>P1 | entries=100 | payload=1024 B | UNSAFE: no flush during append | trials=1 | mean=56141.9 entries/s | min=56141.9 | max=56141.9</title></rect>
<line x1="739" y1="329.07" x2="739" y2="329.07" stroke="#111827" stroke-width="1.5"/>
<line x1="733" y1="329.07" x2="745" y2="329.07" stroke="#111827" stroke-width="1.5"/>
<line x1="733" y1="329.07" x2="745" y2="329.07" stroke="#111827" stroke-width="1.5"/>
<text class="small" transform="translate(726,528) rotate(58)">P1 e100 p1024 UNSAFE</text>
<text x="105" y="593" font-size="17" font-weight="700">Reopen scan time vs WAL file size (trial means with min–max whiskers)</text>
<text transform="translate(22,798.5) rotate(-90)" text-anchor="middle" font-size="12">reopen scan milliseconds</text>
<line class="axis" x1="105" y1="611" x2="105" y2="986"/>
<line class="axis" x1="105" y1="986" x2="1155" y2="986"/>
<line class="grid" x1="105" y1="986.0" x2="1155" y2="986.0"/>
<text class="small" text-anchor="end" x="97" y="989.0">0</text>
<line class="grid" x1="105" y1="911.0" x2="1155" y2="911.0"/>
<text class="small" text-anchor="end" x="97" y="914.0">2.22</text>
<line class="grid" x1="105" y1="836.0" x2="1155" y2="836.0"/>
<text class="small" text-anchor="end" x="97" y="839.0">4.44</text>
<line class="grid" x1="105" y1="761.0" x2="1155" y2="761.0"/>
<text class="small" text-anchor="end" x="97" y="764.0">6.66</text>
<line class="grid" x1="105" y1="686.0" x2="1155" y2="686.0"/>
<text class="small" text-anchor="end" x="97" y="689.0">8.87</text>
<line class="grid" x1="105" y1="611.0" x2="1155" y2="611.0"/>
<text class="small" text-anchor="end" x="97" y="614.0">11.1</text>
<line class="grid" x1="105.0" y1="611" x2="105.0" y2="986"/>
<text class="small" text-anchor="middle" x="105.0" y="1004">0</text>
<line class="grid" x1="315.0" y1="611" x2="315.0" y2="986"/>
<text class="small" text-anchor="middle" x="315.0" y="1004">0.0224</text>
<line class="grid" x1="525.0" y1="611" x2="525.0" y2="986"/>
<text class="small" text-anchor="middle" x="525.0" y="1004">0.0448</text>
<line class="grid" x1="735.0" y1="611" x2="735.0" y2="986"/>
<text class="small" text-anchor="middle" x="735.0" y="1004">0.0673</text>
<line class="grid" x1="945.0" y1="611" x2="945.0" y2="986"/>
<text class="small" text-anchor="middle" x="945.0" y="1004">0.0897</text>
<line class="grid" x1="1155.0" y1="611" x2="1155.0" y2="986"/>
<text class="small" text-anchor="middle" x="1155.0" y="1004">0.112</text>
<text x="630.0" y="1025" text-anchor="middle" font-size="12">WAL file size (MiB)</text>
<line x1="124.75" y1="789.93" x2="124.75" y2="789.93" stroke="#111827" stroke-width="1.5"/>
<line x1="124.75" y1="789.93" x2="124.75" y2="789.93" stroke="#111827" stroke-width="1.5"/>
<circle cx="124.75" cy="789.93" r="7" fill="#2563eb" stroke="#111827" stroke-width="2"><title>P1 | entries=10 | payload=64 B | flush every append | trials=1 | mean file=2211 B [2211, 2211] | mean scan=5.7998 ms [5.7998, 5.7998]</title></circle>
<text class="small" x="133.75" y="782.93">P1</text>
<line x1="124.75" y1="960.70" x2="124.75" y2="960.70" stroke="#111827" stroke-width="1.5"/>
<line x1="124.75" y1="960.70" x2="124.75" y2="960.70" stroke="#111827" stroke-width="1.5"/>
<circle cx="124.75" cy="960.70" r="7" fill="#059669" stroke="#111827" stroke-width="2"><title>P1 | entries=10 | payload=64 B | group(4) | trials=1 | mean file=2211 B [2211, 2211] | mean scan=0.7485 ms [0.7485, 0.7485]</title></circle>
<text class="small" x="133.75" y="953.70">P1</text>
<line x1="124.75" y1="943.61" x2="124.75" y2="943.61" stroke="#991b1b" stroke-width="1.5"/>
<line x1="124.75" y1="943.61" x2="124.75" y2="943.61" stroke="#991b1b" stroke-width="1.5"/>
<circle cx="124.75" cy="943.61" r="7" fill="url(#unsafeHatch)" stroke="#991b1b" stroke-width="2"><title>P1 | entries=10 | payload=64 B | UNSAFE: no flush during append | trials=1 | mean file=2211 B [2211, 2211] | mean scan=1.254 ms [1.254, 1.254]</title></circle>
<text class="small" x="133.75" y="936.61">P1</text>
<line x1="118.75" y1="937.61" x2="130.75" y2="949.61" stroke="#991b1b" stroke-width="2"/>
<line x1="130.75" y1="937.61" x2="118.75" y2="949.61" stroke="#991b1b" stroke-width="2"/>
<line x1="210.49" y1="690.18" x2="210.49" y2="690.18" stroke="#111827" stroke-width="1.5"/>
<line x1="210.49" y1="690.18" x2="210.49" y2="690.18" stroke="#111827" stroke-width="1.5"/>
<circle cx="210.49" cy="690.18" r="7" fill="#2563eb" stroke="#111827" stroke-width="2"><title>P1 | entries=10 | payload=1024 B | flush every append | trials=1 | mean file=11811 B [11811, 11811] | mean scan=8.7503 ms [8.7503, 8.7503]</title></circle>
<text class="small" x="219.49" y="683.18">P1</text>
<line x1="210.49" y1="767.51" x2="210.49" y2="767.51" stroke="#111827" stroke-width="1.5"/>
<line x1="210.49" y1="767.51" x2="210.49" y2="767.51" stroke="#111827" stroke-width="1.5"/>
<circle cx="210.49" cy="767.51" r="7" fill="#059669" stroke="#111827" stroke-width="2"><title>P1 | entries=10 | payload=1024 B | group(4) | trials=1 | mean file=11811 B [11811, 11811] | mean scan=6.4629 ms [6.4629, 6.4629]</title></circle>
<text class="small" x="219.49" y="760.51">P1</text>
<line x1="210.49" y1="683.58" x2="210.49" y2="683.58" stroke="#991b1b" stroke-width="1.5"/>
<line x1="210.49" y1="683.58" x2="210.49" y2="683.58" stroke="#991b1b" stroke-width="1.5"/>
<circle cx="210.49" cy="683.58" r="7" fill="url(#unsafeHatch)" stroke="#991b1b" stroke-width="2"><title>P1 | entries=10 | payload=1024 B | UNSAFE: no flush during append | trials=1 | mean file=11811 B [11811, 11811] | mean scan=8.9456 ms [8.9456, 8.9456]</title></circle>
<text class="small" x="219.49" y="676.58">P1</text>
<line x1="204.49" y1="677.58" x2="216.49" y2="689.58" stroke="#991b1b" stroke-width="2"/>
<line x1="216.49" y1="677.58" x2="204.49" y2="689.58" stroke="#991b1b" stroke-width="2"/>
<line x1="297.57" y1="669.00" x2="297.57" y2="669.00" stroke="#111827" stroke-width="1.5"/>
<line x1="297.57" y1="669.00" x2="297.57" y2="669.00" stroke="#111827" stroke-width="1.5"/>
<circle cx="297.57" cy="669.00" r="7" fill="#2563eb" stroke="#111827" stroke-width="2"><title>P1 | entries=100 | payload=64 B | flush every append | trials=1 | mean file=21561 B [21561, 21561] | mean scan=9.3767 ms [9.3767, 9.3767]</title></circle>
<text class="small" x="306.57" y="662.00">P1</text>
<line x1="297.57" y1="646.00" x2="297.57" y2="646.00" stroke="#111827" stroke-width="1.5"/>
<line x1="297.57" y1="646.00" x2="297.57" y2="646.00" stroke="#111827" stroke-width="1.5"/>
<circle cx="297.57" cy="646.00" r="7" fill="#059669" stroke="#111827" stroke-width="2"><title>P1 | entries=100 | payload=64 B | group(4) | trials=1 | mean file=21561 B [21561, 21561] | mean scan=10.0572 ms [10.0572, 10.0572]</title></circle>
<text class="small" x="306.57" y="639.00">P1</text>
<line x1="297.57" y1="696.70" x2="297.57" y2="696.70" stroke="#991b1b" stroke-width="1.5"/>
<line x1="297.57" y1="696.70" x2="297.57" y2="696.70" stroke="#991b1b" stroke-width="1.5"/>
<circle cx="297.57" cy="696.70" r="7" fill="url(#unsafeHatch)" stroke="#991b1b" stroke-width="2"><title>P1 | entries=100 | payload=64 B | UNSAFE: no flush during append | trials=1 | mean file=21561 B [21561, 21561] | mean scan=8.5575 ms [8.5575, 8.5575]</title></circle>
<text class="small" x="306.57" y="689.70">P1</text>
<line x1="291.57" y1="690.70" x2="303.57" y2="702.70" stroke="#991b1b" stroke-width="2"/>
<line x1="303.57" y1="690.70" x2="291.57" y2="702.70" stroke="#991b1b" stroke-width="2"/>
<line x1="1155.00" y1="611.00" x2="1155.00" y2="611.00" stroke="#111827" stroke-width="1.5"/>
<line x1="1155.00" y1="611.00" x2="1155.00" y2="611.00" stroke="#111827" stroke-width="1.5"/>
<circle cx="1155.00" cy="611.00" r="7" fill="#2563eb" stroke="#111827" stroke-width="2"><title>P1 | entries=100 | payload=1024 B | flush every append | trials=1 | mean file=117561 B [117561, 117561] | mean scan=11.0924 ms [11.0924, 11.0924]</title></circle>
<text class="small" x="1164.00" y="604.00">P1</text>
<line x1="1155.00" y1="614.43" x2="1155.00" y2="614.43" stroke="#111827" stroke-width="1.5"/>
<line x1="1155.00" y1="614.43" x2="1155.00" y2="614.43" stroke="#111827" stroke-width="1.5"/>
<circle cx="1155.00" cy="614.43" r="7" fill="#059669" stroke="#111827" stroke-width="2"><title>P1 | entries=100 | payload=1024 B | group(4) | trials=1 | mean file=117561 B [117561, 117561] | mean scan=10.991 ms [10.991, 10.991]</title></circle>
<text class="small" x="1164.00" y="607.43">P1</text>
<line x1="1155.00" y1="730.13" x2="1155.00" y2="730.13" stroke="#991b1b" stroke-width="1.5"/>
<line x1="1155.00" y1="730.13" x2="1155.00" y2="730.13" stroke="#991b1b" stroke-width="1.5"/>
<circle cx="1155.00" cy="730.13" r="7" fill="url(#unsafeHatch)" stroke="#991b1b" stroke-width="2"><title>P1 | entries=100 | payload=1024 B | UNSAFE: no flush during append | trials=1 | mean file=117561 B [117561, 117561] | mean scan=7.5687 ms [7.5687, 7.5687]</title></circle>
<text class="small" x="1164.00" y="723.13">P1</text>
<line x1="1149.00" y1="724.13" x2="1161.00" y2="736.13" stroke="#991b1b" stroke-width="2"/>
<line x1="1161.00" y1="724.13" x2="1149.00" y2="736.13" stroke="#991b1b" stroke-width="2"/>
<rect x="105" y="1018" width="16" height="12" fill="#2563eb"/><text x="127" y="1028" font-size="11">flush-every (durable)</text>
<rect x="295" y="1018" width="16" height="12" fill="#059669"/><text x="317" y="1028" font-size="11">group flush (durable)</text>
<rect x="495" y="1018" width="16" height="12" fill="url(#unsafeHatch)" stroke="#991b1b"/><text x="517" y="1028" font-size="11" font-weight="800" fill="#991b1b">UNSAFE no-flush during append</text>
</svg>
